HIERARCHY
ROOT pelvis
{
  OFFSET 0 100 0
  CHANNELS 6 Xposition Yposition Zposition Zrotation Xrotation Yrotation
  JOINT pelvis_right_femur
  {
    OFFSET -10.78128 -3.44521 -0.5502486
    CHANNELS 3 Zrotation Xrotation Yrotation
    JOINT right_femur_tibia
    {
      OFFSET -0.8047443 -44.0398 -0.1307829
      CHANNELS 3 Zrotation Xrotation Yrotation
      JOINT right_tibia_foot
      {
        OFFSET 3.006224 -47.83518 -5
        CHANNELS 3 Zrotation Xrotation Yrotation
        End Site
        {
          OFFSET 0 -5 15
        }
      }
    }
  }
  JOINT pelvis_left_femur
  {
    OFFSET 10.78128 -3.44521 -0.5502486
    CHANNELS 3 Zrotation Xrotation Yrotation
    JOINT left_femur_tibia
    {
      OFFSET 0.8047443 -44.0398 -0.1307829
      CHANNELS 3 Zrotation Xrotation Yrotation
      JOINT left_tibia_foot
      {
        OFFSET -4.370144 -48.10324 -4.275266
        CHANNELS 3 Zrotation Xrotation Yrotation
        End Site
        {
          OFFSET 0 -5 15
        }
      }
    }
  }
  JOINT pelvis_spine1
  {
    OFFSET 0 6.468898 -3.129235
    CHANNELS 3 Zrotation Xrotation Yrotation
    JOINT spine1
    {
      OFFSET 0 23.15396 4.99043
      CHANNELS 3 Zrotation Xrotation Yrotation
      JOINT spine2
      {
        OFFSET 0 20.79997 -5.064912
        CHANNELS 3 Zrotation Xrotation Yrotation
        JOINT neck
        {
          OFFSET 0 14.38658 9.616178
          CHANNELS 3 Zrotation Xrotation Yrotation
          End Site
          {
            OFFSET 0 20 0
          }
        }
      }
      JOINT right_manubrium
      {
        OFFSET -5.722621 16.35077 3.967754
        CHANNELS 3 Zrotation Xrotation Yrotation
        JOINT right_clavicle
        {
          OFFSET -13.16364 1.694482 -4.693211
          CHANNELS 3 Zrotation Xrotation Yrotation
          JOINT right_humerus
          {
            OFFSET -28.5034 -0.3100689 -2.792744
            CHANNELS 3 Zrotation Xrotation Yrotation
            JOINT right_radius
            {
              OFFSET -25.15693 0.02248979 -1.271978
              CHANNELS 3 Zrotation Xrotation Yrotation
              End Site
              {
                OFFSET -15 0 0
              }
            }
          }
        }
      }
      JOINT left_manubrium
      {
        OFFSET 5.722621 16.35077 3.967754
        CHANNELS 3 Zrotation Xrotation Yrotation
        JOINT left_clavicle
        {
          OFFSET 13.16364 1.694482 -4.693211
          CHANNELS 3 Zrotation Xrotation Yrotation
          JOINT left_humerus
          {
            OFFSET 29.39168 -1.063119 -2.237045
            CHANNELS 3 Zrotation Xrotation Yrotation
            JOINT left_radius
            {
              OFFSET 24.59957 -0.9528479 0.9047498
              CHANNELS 3 Zrotation Xrotation Yrotation
              End Site
              {
                OFFSET 15 -0 -0
              }
            }
          }
        }
      }
    }
  }
}
MOTION
Frames: 13
Frame Time: 0.0416666666667
0 103.5113 0 0.7722985 -0.9487265 0.08580859 3.245133 -15.89893 8.709241 -0 39.1748 -0 -6.408925 -15.77321 -2.933022 -7.240151 6.07809 -23.25627 -0 4.711846 -0 6.683487 -18.38934 26.18316 -1.147666 -2.432899 4.096283 2.83572 10.32483 -8.105655 0.6327117 21.35618 6.646385 4.309652 -26.09289 7.208643 4.226532 -20.39179 11.97473 88.11537 32.55305 -20.9031 -0 0 13.63815 -9.986631 8.085667 5.885326 6.029398 -22.87355 -3.159718 -94.52919 24.61378 24.08324 0 0 -16.93862 8.290548 17.78757 4.179601
0.3668837 103.4578 0.8874261 0.7254745 -0.8374465 0.170888 3.481819 -17.77923 8.734856 -0 38.98275 -0 -6.486254 -15.32025 -3.170794 -7.202883 7.844425 -23.38495 -0 5.654022 -0 6.623504 -18.80737 25.90452 -1.124181 -2.490792 3.859869 2.94873 10.37708 -8.334801 0.6046466 21.367 6.678267 4.345553 -26.20869 7.217828 4.141048 -20.12826 11.96227 88.80843 32.38637 -21.83886 -0 0 12.8481 -9.729588 7.956016 5.582069 6.188442 -23.29652 -3.288951 -94.0045 24.46956 23.19372 0 0 -17.74544 8.940226 17.95511 3.368623
0.689919 103.3986 2.200014 0.7162097 -1.094201 0.3609122 3.360292 -19.61836 8.007173 -0 38.81107 -0 -6.138774 -13.28416 -3.499987 -7.043308 9.891866 -22.50938 -0 6.408656 -0 5.823067 -19.33008 24.74375 -1.209335 -2.343281 3.902029 2.899751 10.21647 -8.282135 0.6434887 21.34716 6.734322 4.287278 -25.93851 7.293822 4.30258 -19.85579 11.9038 88.5212 32.68867 -21.64731 -0 0 12.89792 -10.02955 8.334092 5.74341 6.113196 -23.0051 -3.184348 -93.75095 24.89223 22.85145 0 0 -18.04591 8.080703 17.53874 4.459166
0.9525208 103.2339 3.732849 0.6026744 -0.9578876 0.5634824 3.543417 -21.63549 7.399076 -0 36.406 -0 -6.323409 -12.44447 -3.593761 -6.775827 11.49419 -21.95868 -0 6.333664 -0 5.491003 -19.86046 23.92898 -1.242286 -2.292726 3.840055 2.915841 10.15462 -8.334832 0.6528109 21.34282 6.771957 4.272241 -25.85273 7.334369 4.35203 -19.63498 11.87068 88.6212 32.77967 -21.87615 -0 0 12.65129 -10.07485 8.464096 5.713608 6.131937 -23.00845 -3.176193 -93.45581 25.04864 22.38627 0 0 -18.4596 7.893286 17.40125 4.702598
1.147104 102.8667 5.610622 0.4419165 -0.7996204 0.7859817 3.708336 -23.92272 6.439078 -0 32.68925 -0 -6.585757 -11.35412 -3.63118 -6.38812 13.18549 -21.0367 -0 5.890881 -0 4.979939 -20.47368 22.77043 -1.306019 -2.196382 3.776282 2.926646 10.01672 -8.372988 0.6766004 21.34237 6.829511 4.244046 -25.71223 7.409448 4.466433 -19.31331 11.81168 88.63687 33.00849 -22.06612 -0 0 12.40063 -10.13012 8.666744 5.702284 6.131985 -22.90897 -3.116793 -93.11458 25.40015 21.82357 0 0 -18.94914 7.43591 17.16867 5.295378
1.270276 102.2856 7.865488 0.2692651 -0.652168 1.028146 3.84621 -26.29061 5.407141 -0 28.70721 -0 -6.856497 -10.1832 -3.669362 -5.999701 14.93812 -20.02813 -0 5.567617 -0 4.384604 -21.07612 21.50306 -1.356455 -2.121718 3.697851 2.947149 9.908536 -8.429802 0.6934018 21.34268 6.881018 4.223775 -25.60472 7.472664 4.551997 -19.01559 11.76089 88.72808 33.17777 -22.32796 -0 0 12.10478 -10.15408 8.825634 5.661732 6.149171 -22.8727 -3.082563 -92.76542 25.67034 21.24858 0 0 -19.44936 7.125314 16.98811 5.701493
1.325058 101.4753 10.62084 0.096172 -0.6139077 1.3024 3.866209 -28.60766 4.14953 -0 24.50336 -0 -7.037922 -8.626236 -3.731772 -5.607768 16.71885 -18.70567 -0 5.502089 -0 3.521687 -21.61777 19.94041 -1.414243 -2.03601 3.604366 2.971921 9.784433 -8.498138 0.7125208 21.34327 6.940806 4.200542 -25.48138 7.5457 4.649606 -18.66834 11.70164 88.84443 33.36961 -22.64329 -0 0 11.75287 -10.17948 9.007972 5.611468 6.171006 -22.83622 -3.044969 -92.3518 25.97606 20.56819 0 0 -20.03754 6.77688 16.77915 6.158423
1.321783 100.4549 14.00018 -0.05768963 -0.7441385 1.619035 3.745742 -30.62207 2.721848 -0 20.45389 -0 -7.070249 -6.682065 -3.84468 -5.254701 18.38144 -17.07015 -0 6.020461 -0 2.355922 -21.98247 18.11518 -1.467079 -1.955847 3.507101 2.99766 9.676852 -8.575168 0.7288299 21.34105 6.99915 4.177741 -25.35663 7.612731 4.733853 -18.32463 11.64591 88.99432 33.52768 -22.99071 -0 0 11.37812 -10.22209 9.194121 5.559344 6.198731 -22.82749 -3.022561 -91.90798 26.23331 19.85357 0 0 -20.65456 6.478433 16.57021 6.550828
1.277547 99.27825 18.12071 -0.1770322 -1.094788 1.979372 3.513669 -32.02604 1.208369 -0 16.80215 -0 -6.918464 -4.422616 -4.029195 -4.959696 19.69864 -15.11704 -0 7.53968 -0 0.8705553 -22.01341 16.0818 -1.519337 -1.874867 3.400904 3.025589 9.575393 -8.663592 0.7440375 21.33657 7.059955 4.15374 -25.22262 7.679268 4.812932 -17.96217 11.58936 89.17988 33.66853 -23.38451 -0 0 10.9624 -10.28124 9.395098 5.5029 6.23272 -22.83958 -3.010582 -91.41271 26.46668 19.06673 0 0 -21.33229 6.200148 16.34811 6.917672
1.214162 98.05698 23.03832 -0.2439465 -1.69081 2.366995 3.286765 -32.45866 -0.154783 -0 13.93973 -0 -6.575638 -2.105485 -4.307253 -4.731493 20.37437 -12.97817 -0 10.59975 -0 -0.8450332 -21.52719 14.0379 -1.56678 -1.799172 3.288619 3.055248 9.49045 -8.762849 0.7563871 21.32929 7.119873 4.130123 -25.08631 7.740193 4.878255 -17.5988 11.53606 89.4051 33.77343 -23.81922 -0 0 10.51536 -10.35769 9.601163 5.442792 6.273956 -22.88265 -3.014913 -90.8807 26.64842 18.23357 0 0 -22.04965 5.97379 16.12654 7.21716
1.151621 96.96279 28.71392 -0.2467298 -2.524398 2.742856 3.238255 -31.61874 -1.061978 -0 12.22513 -0 -6.070176 -0.09272271 -4.690529 -4.546071 20.12672 -10.86871 -0 15.74584 -0 -2.632188 -20.36995 12.25473 -1.60742 -1.729522 3.182254 3.080656 9.430501 -8.864814 0.7656068 21.31665 7.175759 4.105265 -24.94042 7.790668 4.925316 -17.2542 11.48978 89.64706 33.83005 -24.25648 -0 0 10.07077 -10.47848 9.82169 5.396597 6.316673 -22.95002 -3.038058 -90.32929 26.75732 17.39296 0 0 -22.77472 5.794568 15.89718 7.453386
1.098041 96.20762 34.99359 -0.188935 -3.542676 3.044151 3.518582 -29.35613 -1.246132 -0 11.83993 -0 -5.479004 1.207443 -5.161148 -4.353921 18.75791 -9.047834 -0 23.32962 -0 -4.297806 -18.47523 11.01485 -1.635044 -1.668266 3.125424 3.080768 9.421452 -8.938046 0.7712888 21.29088 7.216354 4.073882 -24.7629 7.814877 4.941243 -17.00019 11.46292 89.81621 33.8059 -24.55159 -0 0 9.756459 -10.72988 10.08396 5.425653 6.339079 -23.01112 -3.084616 -89.83027 26.73535 16.69733 0 0 -23.38012 5.63892 15.6326 7.650627
1.041112 95.99422 41.61218 -0.09810428 -4.644324 3.184897 4.177459 -25.65721 -0.5940565 -0 12.60468 -0 -4.941195 1.387502 -5.644561 -4.09458 16.12915 -7.741298 -0 33.27994 -0 -5.661377 -15.88207 10.54195 -1.643847 -1.61316 3.193846 3.018692 9.492615 -8.922712 0.775518 21.24137 7.224306 4.025867 -24.51349 7.791821 4.915444 -16.95013 11.472 89.73896 33.67391 -24.43974 -0 0 9.801692 -11.24903 10.43394 5.63729 6.299841 -22.99114 -3.150506 -89.5154 26.52712 16.41498 0 0 -23.63596 5.425356 15.27814 7.905073
